<svg width="74" height="73" viewBox="0 0 74 73" fill="none" xmlns="http://www.w3.org/2000/svg">
<path d="M56.1661 17.9038L52.601 23.4514L48.7734 30H54.6393L62.0004 18.0613L56.1661 17.9038Z" fill="#F8F8F8"/>
<path d="M17.9151 17.8001L12 17.9589L19.2662 30H25.2125L17.9151 17.8001Z" fill="#F8F8F8"/>
<path d="M54 25H20V30H54V25Z" fill="#F8F8F8"/>
<path d="M68.4971 36.5C68.4971 53.8769 54.2975 68 36.7486 68C19.1996 68 5 53.9115 5 36.5C5 19.0885 19.1996 5 36.7486 5C54.2975 5 68.4971 19.0885 68.4971 36.5Z" stroke="white" stroke-width="10" stroke-miterlimit="10"/>
<path d="M48 38L37 59L26 38H48Z" stroke="white" stroke-width="5" stroke-miterlimit="10"/>
</svg>
